<?xml version="1.0" encoding="UTF-8" standalone="no"?>
<!-- Generator: Adobe Illustrator 19.0.0, SVG Export Plug-In . SVG Version: 6.00 Build 0)  -->

<svg
   xmlns:dc="http://purl.org/dc/elements/1.1/"
   xmlns:cc="http://creativecommons.org/ns#"
   xmlns:rdf="http://www.w3.org/1999/02/22-rdf-syntax-ns#"
   xmlns:svg="http://www.w3.org/2000/svg"
   xmlns="http://www.w3.org/2000/svg"
   xmlns:sodipodi="http://sodipodi.sourceforge.net/DTD/sodipodi-0.dtd"
   xmlns:inkscape="http://www.inkscape.org/namespaces/inkscape"
   version="1.1"
   id="Capa_1"
   x="0px"
   y="0px"
   viewBox="0 0 56.868 56.868"
   style="enable-background:new 0 0 56.868 56.868;"
   xml:space="preserve"
   inkscape:version="0.91 r13725"
   sodipodi:docname="knife.svg"><metadata
     id="metadata55"><rdf:RDF><cc:Work
         rdf:about=""><dc:format>image/svg+xml</dc:format><dc:type
           rdf:resource="http://purl.org/dc/dcmitype/StillImage" /></cc:Work></rdf:RDF></metadata><defs
     id="defs53" /><sodipodi:namedview
     pagecolor="#ffffff"
     bordercolor="#666666"
     borderopacity="1"
     objecttolerance="10"
     gridtolerance="10"
     guidetolerance="10"
     inkscape:pageopacity="0"
     inkscape:pageshadow="2"
     inkscape:window-width="754"
     inkscape:window-height="480"
     id="namedview51"
     showgrid="false"
     inkscape:zoom="4.1499613"
     inkscape:cx="28.434"
     inkscape:cy="28.434"
     inkscape:window-x="0"
     inkscape:window-y="0"
     inkscape:window-maximized="0"
     inkscape:current-layer="Capa_1" /><g
     id="g4183"
     transform="matrix(-1,0,0,-1,56.868059,56.867887)"><path
       id="path3"
       d="m 33.465,27.555 -7.071,7.071 -20.55,-20.55 0,0 C 2.702,10.935 1.09,6.577 1.431,2.147 L 1.592,0.049 C 1.595,0.004 1.65,-0.017 1.682,0.016 l 2.807,2.807 c 1.349,1.349 3.039,2.306 4.89,2.769 l 0,0 c 1.851,0.463 3.541,1.42 4.89,2.769 l 19.196,19.194 z"
       style="fill:#e0e1e2"
       inkscape:connector-curvature="0" /><path
       id="path5"
       d="M 39.034,29.057 27.895,40.196 c -0.439,0.439 -1.15,0.439 -1.589,0 L 24.36,38.25 c -0.439,-0.439 -0.439,-1.15 0,-1.589 L 35.499,25.522 c 0.439,-0.439 1.15,-0.439 1.589,0 l 1.946,1.946 c 0.439,0.439 0.439,1.15 0,1.589 z"
       style="fill:#38454f"
       inkscape:connector-curvature="0" /><path
       id="path7"
       d="m 15.787,19.363 c -0.256,0 -0.512,-0.098 -0.707,-0.293 l -4.95,-4.95 c -0.391,-0.391 -0.391,-1.023 0,-1.414 0.391,-0.391 1.023,-0.391 1.414,0 l 4.95,4.95 c 0.391,0.391 0.391,1.023 0,1.414 -0.195,0.195 -0.451,0.293 -0.707,0.293 z"
       style="fill:#ffffff"
       inkscape:connector-curvature="0" /><path
       id="path9"
       d="m 55.377,47.306 -9.457,9.457 c -0.14,0.14 -0.366,0.14 -0.505,0 l -3.48,-3.48 c -0.14,-0.14 -0.14,-0.366 0,-0.505 l 9.457,-9.457 c 0.14,-0.14 0.366,-0.14 0.505,0 l 3.48,3.48 c 0.14,0.139 0.14,0.365 0,0.505 z"
       style="fill:#38454f"
       inkscape:connector-curvature="0" /><rect
       id="rect11"
       height="10"
       width="18.825001"
       style="fill:#556080"
       transform="matrix(0.7071,0.7071,-0.7071,0.7071,40.9416,-16.2781)"
       y="36.282001"
       x="30.708" /><polygon
       id="polygon13"
       points="40.108,34.198 38.693,32.784 31.523,39.756 32.938,41.171 "
       style="fill:#38454f" /><polygon
       id="polygon15"
       points="42.936,37.027 41.522,35.612 34.352,42.585 35.766,43.999 "
       style="fill:#38454f" /><polygon
       id="polygon17"
       points="45.764,39.855 44.35,38.44 37.18,45.413 38.595,46.827 "
       style="fill:#38454f" /><polygon
       id="polygon19"
       points="48.593,42.683 47.179,41.269 40.009,48.242 41.423,49.656 "
       style="fill:#38454f" /><g
       id="g21" /><g
       id="g23" /><g
       id="g25" /><g
       id="g27" /><g
       id="g29" /><g
       id="g31" /><g
       id="g33" /><g
       id="g35" /><g
       id="g37" /><g
       id="g39" /><g
       id="g41" /><g
       id="g43" /><g
       id="g45" /><g
       id="g47" /><g
       id="g49" /></g></svg>